Coordinates
version=1
nRows=68
nColumns=6
inDegrees=yes

Units are S.I. units (second, meters, Newtons, ...)
If the header above contains a line with 'inDegrees', this indicates whether rotational values are in degrees (yes) or radians (no).

endheader
time	foot_tx	hip_flexion_r	knee_angle_r	ankle_angle_r	lumbar
     30.10000000	      0.26545521	     65.37002549	    -67.17695638	      3.24702199	    -11.19943959
     30.11000000	      0.26546567	     65.43988592	    -67.16069067	      3.23426586	    -11.27970470
     30.12000000	      0.26545365	     65.43374549	    -67.14792266	      3.22980885	    -11.46300088
     30.13000000	      0.26545259	     65.46795349	    -67.13068777	      3.21894119	    -11.61385441
     30.14000000	      0.26544969	     65.50212620	    -67.11175719	      3.20687780	    -11.78047165
     30.15000000	      0.26544713	     65.53797604	    -67.09165673	      3.19378441	    -11.96097081
     30.16000000	      0.26544183	     65.57455657	    -67.06999105	      3.17967106	    -12.15755695
     30.17000000	      0.26543476	     65.61265734	    -67.04648727	      3.16424650	    -12.37007267
     30.18000000	      0.26542560	     65.65380269	    -67.02107871	      3.14734333	    -12.59748753
     30.19000000	      0.26541678	     65.70038238	    -66.99253122	      3.12781224	    -12.83780949
     30.20000000	      0.26540120	     65.75415778	    -66.96279112	      3.10714192	    -13.08905876
     30.21000000	      0.26538330	     65.81596860	    -66.92876832	      3.08303554	    -13.35074993
     30.22000000	      0.26536186	     65.88861489	    -66.89077822	      3.05573747	    -13.61901339
     30.23000000	      0.26533751	     65.97388564	    -66.84845942	      3.02519406	    -13.89126360
     30.24000000	      0.26530777	     66.07333076	    -66.80328386	      2.99240066	    -14.16511654
     30.25000000	      0.26527689	     66.19084555	    -66.75398533	      2.95670649	    -14.43555314
     30.26000000	      0.26524208	     66.32164871	    -66.70495548	      2.92178670	    -14.70707273
     30.27000000	      0.26520731	     66.46962602	    -66.65598836	      2.88750641	    -14.97425920
     30.28000000	      0.26517923	     66.68256302	    -66.61022497	      2.85293733	    -15.17955900
     30.29000000	      0.26512900	     66.79895579	    -66.57501091	      2.83610127	    -15.51086681
     30.30000000	      0.26509059	     66.98370221	    -66.54453787	      2.82041353	    -15.77525804
     30.31000000	      0.26505486	     67.21813540	    -66.51915224	      2.80815758	    -15.99566253
     30.32000000	      0.26501072	     67.40743930	    -66.50056864	      2.80770076	    -16.28346046
     30.33000000	      0.26497418	     67.66534414	    -66.48374295	      2.80725556	    -16.50785183
     30.34000000	      0.26493411	     67.93447604	    -66.47039779	      2.81273863	    -16.73741537
     30.35000000	      0.26489663	     68.21923416	    -66.46100586	      2.82396228	    -16.96778940
     30.36000000	      0.26485627	     68.57447749	    -66.45811181	      2.83925527	    -17.13605027
     30.37000000	      0.26482299	     68.93775858	    -66.45943218	      2.86105454	    -17.31684630
     30.38000000	      0.26477393	     69.33543212	    -66.47279379	      2.89385168	    -17.47963850
     30.39000000	      0.26473002	     69.76772874	    -66.48788109	      2.93001050	    -17.62903568
     30.40000000	      0.26467389	     70.25116972	    -66.50965546	      2.97235106	    -17.74779404
     30.41000000	      0.26462980	     70.77283208	    -66.52586112	      3.01261233	    -17.85671640
     30.42000000	      0.26457141	     71.35481726	    -66.54630474	      3.05713876	    -17.93203211
     30.43000000	      0.26450834	     71.98709608	    -66.56945502	      3.10515181	    -17.98841887
     30.44000000	      0.26444377	     72.66804240	    -66.59507540	      3.15662855	    -18.03039372
     30.45000000	      0.26437159	     73.39392231	    -66.62415631	      3.21322606	    -18.06362129
     30.46000000	      0.26430413	     74.15745689	    -66.65371649	      3.27367307	    -18.09512083
     30.47000000	      0.26421093	     74.95776960	    -66.69184585	      3.34634324	    -18.11982602
     30.48000000	      0.26412023	     75.77651141	    -66.72600002	      3.42465402	    -18.15496810
     30.49000000	      0.26399812	     76.62692737	    -66.77222636	      3.52168637	    -18.17528924
     30.50000000	      0.26386037	     77.50434381	    -66.82635838	      3.63584550	    -18.18281261
     30.51000000	      0.26369788	     78.41059650	    -66.89688693	      3.77416235	    -18.16943927
     30.52000000	      0.26352190	     79.36174511	    -66.98080104	      3.93449367	    -18.11233391
     30.53000000	      0.26333882	     80.36017674	    -67.07617588	      4.11601973	    -18.00305246
     30.54000000	      0.26315728	     81.41618649	    -67.17461289	      4.31345776	    -17.82373713
     30.55000000	      0.26298565	     82.53457218	    -67.26615869	      4.52124926	    -17.56174003
     30.56000000	      0.26283547	     83.69838393	    -67.34601422	      4.73837924	    -17.22909124
     30.57000000	      0.26271252	     84.88738990	    -67.41428666	      4.96750631	    -16.84173473
     30.58000000	      0.26262676	     86.06745211	    -67.47547924	      5.21345575	    -16.43566374
     30.59000000	      0.26258477	     87.22330216	    -67.53248465	      5.47775761	    -16.02758204
     30.60000000	      0.26258647	     88.34242466	    -67.58760858	      5.76172975	    -15.63203454
     30.61000000	      0.26262960	     89.41440826	    -67.64332189	      6.06526637	    -15.26041990
     30.62000000	      0.26271066	     90.42924187	    -67.70076293	      6.38665954	    -14.92224009
     30.63000000	      0.26282520	     91.38397767	    -67.76106810	      6.72311701	    -14.61713269
     30.64000000	      0.26296191	     92.26471033	    -67.82758332	      7.07379836	    -14.35777310
     30.65000000	      0.26311070	     93.06202538	    -67.90359330	      7.43761263	    -14.15067350
     30.66000000	      0.26326246	     93.77065940	    -67.99130867	      7.81277639	    -13.99645003
     30.67000000	      0.26341177	     94.38516152	    -68.09357314	      8.19816983	    -13.89468354
     30.68000000	      0.26355610	     94.89950546	    -68.21217343	      8.59300336	    -13.84377006
     30.69000000	      0.26369858	     95.30769431	    -68.34871111	      8.99712718	    -13.84140911
     30.70000000	      0.26384388	     95.60913647	    -68.50108560	      9.40927850	    -13.87792294
     30.71000000	      0.26399278	     95.78877898	    -68.66762748	      9.83042221	    -13.96248694
     30.72000000	      0.26415755	     95.90858054	    -68.83441332	     10.25010181	    -14.00998969
     30.73000000	      0.26433024	     95.90668174	    -68.99805934	     10.67187318	    -14.09573557
     30.74000000	      0.26452090	     95.84116304	    -69.14425404	     11.08594158	    -14.14745723
     30.75000000	      0.26472536	     95.71355158	    -69.26343511	     11.48876227	    -14.16689176
     30.76000000	      0.26493973	     95.53493003	    -69.34957346	     11.87790292	    -14.14516065
     30.77000000	      0.26515781	     95.30345437	    -69.39800273	     12.25235960	    -14.08993018
